<?xml version="1.0" encoding="UTF-8"?>
<svg id="Capa_2" data-name="Capa 2" xmlns="http://www.w3.org/2000/svg" viewBox="0 0 540.77 540.77">
  <defs>
    <style>
      .cls-1 {
        fill: #0779ff;
      }

      .cls-2 {
        fill: #fff;
      }
    </style>
  </defs>
  <g id="Capa_1-2" data-name="Capa 1">
    <g>
      <rect class="cls-1" width="540.77" height="540.77"/>
      <path class="cls-2" d="M265.93,376.96c-15.63-.39-31.17-2.58-46.3-6.54-14.13-3.67-27.73-9.15-40.46-16.31-13.55-7.56-25.69-17.39-35.91-29.07-4.35-4.98-6.73-8.32-7.91-11.07-.42-.87-.66-1.82-.7-2.78-.09-1.78.47-2.87,1.85-3.54.49-.25.55-.26,1.46-.26.5-.03,1.01.03,1.49.18,1.59.52,3.61,1.78,6.22,3.87,9.02,7.3,18.8,13.6,29.16,18.81,11.56,5.83,22.88,10.04,37.08,13.78,16.08,4.21,32.55,6.8,49.15,7.7,5.7.32,7.34.36,14.84.36,8.29,0,12.07-.12,18.95-.59,28.3-1.94,56.26-8.53,77.1-18.15,1.66-.78,3.3-1.59,4.93-2.43,3.53-1.78,4.46-2.21,5.93-2.74,2.06-.74,3.48-.49,4.67.8.8.79,1.22,1.89,1.16,3.01-.4,3.25-4.62,7.86-12.82,14.04-19.54,14.72-46.53,25-76.31,29.06-6.84.92-13.73,1.51-20.63,1.77-4.32.12-8.63.15-12.95.08h0ZM392.37,358.22c-.9-.35-1.65-1.02-2.1-1.88-.6-1.32-.41-2.47.81-5.02.75-1.52,1.58-3,2.5-4.42,3.23-5.35,6.47-12.48,7.99-17.58,1.53-5.12,1.72-8.03.63-9.69-.94-1.42-3.95-2.32-8.86-2.64-1.92-.13-8.08-.05-9.92.12-4.11.38-6.97.8-10.8,1.57-2.74.56-3.27.63-5.21.63s-2.25-.05-3.01-.43c-1.17-.64-1.83-1.94-1.64-3.26.2-1.07.89-2.08,2.18-3.16,3.28-2.74,8.41-5.4,13.99-7.25,5.86-1.96,12.03-2.84,18.2-2.61,3.52.11,7.01.62,10.41,1.52,5.57,1.44,8.95,3.29,10.12,5.56.9,1.75,1.24,3.52,1.23,6.54-.05,5.2-.94,10.36-2.63,15.28-2.43,7.41-6.63,14.11-12.25,19.51-4.15,4.09-7.02,6.26-9.36,7.05-.73.25-1.51.3-2.27.16h0ZM91.85,301.14c-.67-.27-1.22-.77-1.56-1.4l-.18-.33-.02-51.4c-.02-46.57,0-51.43.1-51.82.16-.54.81-1.25,1.43-1.55l.44-.22h14.17l.37.17c.58.28,1.05.75,1.31,1.34.28.6.37,1.01,1.51,6.62l.81,3.97h.78l.35-.76c.81-1.76,1.83-3.43,3.03-4.96,1.49-1.78,3.22-3.34,5.14-4.64,5.01-3.38,11.2-4.53,17.08-3.18,5.97,1.31,11.35,5.28,15.27,11.25,3.78,5.78,6.44,14.06,7.28,22.76.25,2.58.29,3.3.33,7.02.11,3.67-.07,7.34-.52,10.98-1.25,10-4.64,18.65-9.55,24.35-1.12,1.25-2.32,2.42-3.6,3.5-3.09,2.49-6.8,4.11-10.73,4.7-1.53.23-5.23.26-6.69.04-5.69-.85-9.98-3.5-13.76-8.49-1.04-1.41-1.98-2.88-2.82-4.42-.21-.37-.22-.38-.6-.38h-.39l-.02,17.56-.02,17.55-.23.41c-.33.57-.82,1.02-1.42,1.3-.33.11-1.25.13-8.67.13-6.78,0-8.36-.02-8.6-.11ZM126.58,260.15c2.97-.57,5.34-2.25,7.2-5.13,2.35-3.6,3.73-8.85,4.14-15.8.13-2.07.05-8.23-.12-10-.36-3.76-.95-6.81-1.8-9.29-1.97-5.75-5.05-8.98-9.43-9.86-1.49-.19-3-.19-4.49,0-3.59.72-6.31,3-8.32,6.94-1.16,2.32-1.97,4.8-2.43,7.36-1.01,5.1-1.19,12.82-.43,18.74.64,5.02,1.99,9.09,3.97,12.02,2.11,3.11,4.74,4.77,8.2,5.17.85.1,2.58.02,3.5-.16ZM414.47,277.71l-1.21-.12c-5.87-.52-11.49-2.65-16.23-6.16-2.27-1.74-4.34-3.73-6.15-5.94-5.01-6.33-8.12-14.37-9.04-23.47-.24-2.42-.3-3.91-.26-7.26-.02-3.17.25-6.34.81-9.46,2.92-16.65,13.48-29.09,27.24-32.08,2.52-.55,4.52-.75,7.39-.75,3.87-.06,7.71.64,11.31,2.04,1.37.57,2.72,1.22,4.02,1.95,4.21,2.51,7.82,5.92,10.57,9.99,3.29,5.01,5.56,10.62,6.7,16.5.81,4.02,1.1,7.58,1.06,13.07-.02,3.34-.03,3.41-.2,3.73-.34.69-.98,1.18-1.73,1.33-.36.09-4.51.11-22.98.11h-22.53l.05.53c.63,6.75,1.86,11.15,4.05,14.41,1.82,2.74,4.06,4.31,7.05,4.95.96.2,3.23.28,4.37.16,3.1-.36,5.36-1.41,7.25-3.39,1.52-1.59,2.56-3.58,3.31-6.33.38-1.41.47-1.62.85-2.04.41-.45.86-.65,1.51-.65.7,0,15.49,3.3,16.1,3.59.76.34,1.21,1.15,1.1,1.98-.16,1.22-1.94,5.38-3.34,7.81-2.94,5.18-7.33,9.38-12.64,12.07-3.65,1.77-7.59,2.88-11.63,3.27-1.06.12-5.95.22-6.77.14h0ZM429.51,226.94c-.1-1.1-.45-3.33-.71-4.67-1.26-6.21-3.79-10.5-7.23-12.29-2.9-1.43-6.3-1.44-9.21-.02-1.1.56-2.1,1.3-2.94,2.21-1.03.99-1.89,2.13-2.56,3.38-1.49,2.69-2.61,6.3-3.23,10.47-.09.58-.16,1.15-.16,1.28v.21h26.08l-.05-.56h0ZM172.49,275.58c-.62-.31-1.12-.83-1.41-1.47-.11-.34-.13-3.74-.13-39.1s.02-38.75.13-39.09c.22-.57.66-1.03,1.22-1.28l.49-.23,6.85-.02c7.12-.02,7.46-.02,8.07.3.43.22.97.86,1.16,1.39.09.25.61,2.62,1.14,5.27l1.02,4.99c.05.16.08.18.44.16l.39-.02.41-.94c.86-2,1.97-3.88,3.3-5.6.74-.93,2.35-2.51,3.29-3.22,3.66-2.79,7.55-4.07,12.39-4.06,3.29,0,6.18.56,8.85,1.71.88.38,1.35.76,1.64,1.29.19.38.2.48.2,1.27,0,.86,0,.88-1.94,8.69-1.06,4.31-2,7.99-2.06,8.16-.16.41-.56.85-.96,1.02-.28.1-.58.14-.88.13-.67,0-.72-.02-3.42-1.11-2.83-1.15-4.96-1.82-6.6-2.05-1.43-.14-2.88-.13-4.31.03-1.43.22-2.81.73-4.05,1.48-.94.58-2.4,2.04-3.09,3.08-1.9,2.89-2.76,6.22-2.96,11.39-.04,1.06-.07,11.88-.08,24.03,0,24.48.05,22.43-.5,23.18-.19.25-.43.46-.72.59l-.46.23-8.49.02-8.49.02-.46-.22h0ZM230.81,275.69c-.77-.23-1.26-.7-1.51-1.41-.13-.38-.14-2.17-.14-39.23v-38.83l.2-.43c.26-.55.63-.9,1.17-1.17l.42-.2,8.26-.02c8.56-.02,8.95,0,9.55.3.4.24.72.58.92,1,.13.27.14,2.35.16,39.2.02,35.49,0,38.94-.1,39.34-.1.34-.3.64-.57.87-.74.74-.05.7-9.68.69-6.53,0-8.46-.02-8.69-.1h0ZM265.99,275.69c-.65-.23-1.22-.74-1.57-1.39l-.19-.34v-77.82l.19-.41c.24-.5.66-.9,1.18-1.1l.43-.2h7.12c6.63,0,7.16,0,7.48.14.7.26,1.24.82,1.49,1.53.13.36.82,3.62,2.11,10.02l.08.41h.82l.27-.69c.57-1.34,1.22-2.64,1.97-3.89,3.16-5.06,7.73-8.21,13.29-9.16,3.7-.63,7.81-.33,11.18.83,4.42,1.52,8.12,4.54,10.84,8.88.68,1.13,1.29,2.3,1.83,3.51l.23.52h.78l.63-.96c2.81-4.31,6.29-7.87,9.75-9.96,4.59-2.69,9.96-3.71,15.22-2.9,5.36.79,10.2,3.69,13.4,8.06.94,1.25,1.67,2.45,2.46,4.06,2.03,4.12,3.29,8.83,3.8,14.22.27,2.79.29,4.98.26,30.09l-.02,24.82-.2.43c-.2.52-.6.94-1.1,1.18l-.41.19h-17.14l-.34-.18c-.51-.28-.94-.7-1.23-1.21l-.23-.41-.04-25.05c-.05-26.63-.03-25.37-.39-27.48-.76-4.49-2.75-7.61-5.75-9.05-1.49-.71-2.94-.98-4.99-.91-2.9.1-5.06.99-6.9,2.83-2.21,2.2-3.48,5.44-4.09,10.37-.12.96-.13,3.29-.17,25.17l-.05,24.11-.2.43c-.2.52-.6.94-1.1,1.18l-.41.19h-17.14l-.41-.23c-.51-.29-.92-.71-1.21-1.22l-.19-.34-.04-25.05c-.05-26.63-.03-25.37-.39-27.48-.76-4.49-2.75-7.61-5.75-9.05-1.49-.71-2.94-.98-4.99-.91-2.9.1-5.06.99-6.9,2.83-2.21,2.2-3.48,5.44-4.09,10.37-.12.96-.13,3.29-.17,25.17l-.05,24.11-.2.43c-.2.52-.6.94-1.1,1.18l-.41.19-8.46.02c-6.78.02-8.51,0-8.74-.08h0s0,0,0,0ZM237.89,187.97c-2.81-.32-5.41-1.61-7.36-3.66-1.5-1.55-2.51-3.51-2.9-5.64-.23-1.17-.3-3.44-.13-4.76.47-3.52,2.07-6.18,4.88-8.06,4.03-2.7,9.94-2.78,13.93-.18,1.54.99,2.83,2.31,3.78,3.88,1.68,2.85,2.04,7.28.87,10.76-1.13,3.16-3.57,5.68-6.7,6.89-1.86.72-4.23,1.01-6.37.77h0Z"/>
    </g>
  </g>
</svg>
