<?xml version="1.0" encoding="UTF-8"?>
<svg id="Capa_2" data-name="Capa 2" xmlns="http://www.w3.org/2000/svg" viewBox="0 0 553 553">
  <defs>
    <style>
      .cls-1 {
        fill: #fe0202;
      }

      .cls-2 {
        fill: #060606;
      }

      .cls-3 {
        fill: #fefefe;
      }
    </style>
  </defs>
  <g id="Capa_1-2" data-name="Capa 1">
    <g>
      <rect class="cls-3" width="553" height="553"/>
      <g>
        <path class="cls-1" d="M248.51,169.83c19.52-.85,39.24-.35,58.63.64,13.83.71,34.37-1.93,39.39,14.9,4.27,14.31,3.98,54.45.38,69.05-4.56,18.46-24.91,15.61-39.76,16.36-24.2,1.24-59.96,3.12-83.51-1.16-10.68-1.94-15.43-6.76-17.75-17.22-3.31-14.9-3.99-55.5,1.61-69.31,1.88-4.63,5.69-8.09,10.35-9.9,7.17-2.78,22.49-3.01,30.68-3.37ZM261.58,242.25l37.71-21.62-37.71-21.62v43.25Z"/>
        <g>
          <path class="cls-2" d="M376.33,382.34c-1.2-.37-1.3-2.09-1.43-3.17-1.37-11.69-1.4-46.42,0-58.06.12-.99-.04-2.12.91-2.77.87-.61,10.27-.71,10.97-.27,1.54.97-.03,7.35,2.42,6.31,6.13-8.65,20.4-11.36,24.85,0,4.67-6.81,17.33-11.06,23.05-3.72.71.91,3.17,6.32,3.17,6.95v54.75h-14.72v-51.07c0-5.21-10.12-3.13-10.12,0v51.07h-14.72v-49.23c0-.72-1.39-4.59-2.42-4.96-1.79-.64-7.7.61-7.7,2.2v51.99c-3.71-.7-11.15.96-14.26,0Z"/>
          <path class="cls-2" d="M234.63,382.34c-1.2-.37-1.3-2.09-1.43-3.17-1.37-11.7-1.4-46.4,0-58.06.12-.99-.04-2.12.91-2.77,1.04-.72,10.12-.72,11.16,0,2.22,1.55-.89,6.86,2.23,6.97,4.37-9.62,21.23-12.52,24.4-.93,5.55-5.51,12.42-9.99,20.48-6.23,2.73,1.28,6.19,6.64,6.19,9.45v54.75h-14.72v-51.07c0-5.21-10.12-3.13-10.12,0v51.07h-14.72v-50.15c0-6.61-10.12-3.83-10.12-1.84v51.99c-3.71-.7-11.15.96-14.26,0Z"/>
          <path class="cls-2" d="M126.52,351.97v30.36h-13.8v-87.41h25.3c.42,0,6.91,2.7,7.78,3.26,8.94,5.75,9.21,22.45,8.07,31.9-1.83,15.16-12.67,22.15-27.35,21.88ZM126.52,340.93c15.02,4.23,15.12-24.28,10.91-31.62-2.2-3.84-10.91-5.39-10.91-2.89v34.5Z"/>
          <path class="cls-2" d="M342.75,317.93v50.15c0,1.32,2.27,5.01,4.12,5.04,1.49.03,6-3.29,6-4.12v-51.07h14.72v64.41c-1.92-.34-11.37.49-11.92-.05-.34-.33-.22-5.51-1.42-6.39-3.9,7.53-17.58,10.98-22.95,3.62-.87-1.2-3.28-6.67-3.28-7.76v-53.83h14.72Z"/>
          <path class="cls-2" d="M226.81,355.65h-23.92c-.16,3.44-.17,16.12,3.37,17.33,6.73,2.32,7.92-5.9,7.67-10.89l12.88.92c.85,10.83-3.77,19.27-15.15,20.28-8.59.76-16.55-.75-20.28-9.23-4.52-10.28-4.88-40.54,1.54-49.99,6.38-9.39,25.21-10.05,30.99-.02.56.98,2.9,7.5,2.9,8.15v23.46ZM213.01,346.45v-15.18c0-4.84-10.12-6.57-10.12,1.84v13.34h10.12Z"/>
          <path class="cls-2" d="M158.72,319.31c.77-2.49,9.58-1,11.97-1.39l1.83,11.96c1.27-7.55,6.32-14.45,14.74-12.88-.05,2.05-.34,15.98-.92,16.57-.28.29-5.82-.11-8.14.6-1.19.37-4.75,2.71-4.75,3.53v44.63h-14.72v-63.03Z"/>
          <path class="cls-2" d="M320.67,317.93v64.41h-14.72v-63.03c0-.1,1.28-1.38,1.38-1.38h13.34Z"/>
          <path class="cls-2" d="M307.1,309.42c-2.96-3.26-2.43-14.32,2.47-15.93,13.42-4.4,15.41,13.34,8.6,16.87-2.91,1.51-8.83,1.52-11.07-.95Z"/>
          <path class="cls-3" d="M126.52,340.93v-34.5c0-2.5,8.71-.95,10.91,2.89,4.21,7.34,4.11,35.84-10.91,31.62Z"/>
          <path class="cls-3" d="M213.01,346.45h-10.12v-13.34c0-8.41,10.12-6.68,10.12-1.84v15.18Z"/>
        </g>
      </g>
    </g>
  </g>
</svg>