<?xml version="1.0" encoding="UTF-8"?>
<svg id="Capa_2" data-name="Capa 2" xmlns="http://www.w3.org/2000/svg" viewBox="0 0 538 538">
  <defs>
    <style>
      .cls-1 {
        fill: #faba05;
      }

      .cls-2 {
        fill: #2979eb;
      }

      .cls-3 {
        fill: #f5f5f5;
      }

      .cls-4 {
        fill: #e84436;
      }

      .cls-5 {
        fill: #fefefe;
      }

      .cls-6 {
        fill: #36a854;
      }
    </style>
  </defs>
  <g id="Capa_1-2" data-name="Capa 1">
    <g>
      <path class="cls-5" d="M535.62,0l2.38,2.39v533.22l-2.38,2.39H4.76V0h530.86ZM261.86,141.08c-20.57,15.04-48.54,36.38-66.69,53.77-7.37,7.06-15.55,13.19-16.7,23.91-2.94,27.38,18.5,43.87,44.66,35.26,11.64-3.83,21.44-20.83,33.97-24.46-.12,24.66-.19,49.46,0,74.12.19,24.56-3.31,62.17.15,84.73,5.31,34.57,58.36,36.39,64,2.42,2.33-14.03-2.43-30.36-2.26-41.72.88-59.03,4.7-119.76,2.38-179.33-.68-17.56,1.13-32.13-18.48-40.02-21.89-8.8-26.16.44-41.03,11.32Z"/>
      <path class="cls-3" d="M4.76,538h-2.38l-2.38-2.39V2.39C.11,1.88,1.95.96,2.38,0h2.38v538Z"/>
      <path class="cls-5" d="M0,2.39V0h2.38C1.95.96.11,1.88,0,2.39Z"/>
      <polygon class="cls-3" points="538 2.39 535.62 0 538 0 538 2.39"/>
      <polygon class="cls-5" points="2.38 538 0 538 0 535.61 2.38 538"/>
      <polygon class="cls-3" points="538 535.61 538 538 535.62 538 538 535.61"/>
      <path class="cls-2" d="M318.99,349.1l-61.89-45.43c-.19-24.66-.12-49.46,0-74.12,0-.8,0-1.59,0-2.39,21.35-19.06,47.17-34.29,64.27-57.39,2.32,59.57-1.5,120.3-2.38,179.33Z"/>
      <path class="cls-1" d="M257.1,227.16c0,.8,0,1.59,0,2.39-12.53,3.63-22.33,20.63-33.97,24.46-26.17,8.61-47.6-7.87-44.66-35.26,1.15-10.72,9.34-16.85,16.7-23.91,18.14-17.39,46.12-38.73,66.69-53.77-8.34,26.14-4.61,58.12-4.76,86.08Z"/>
      <path class="cls-6" d="M318.99,349.1c-.17,11.36,4.58,27.69,2.26,41.72-5.64,33.97-58.69,32.15-64-2.42-3.47-22.56.03-60.17-.15-84.73l61.89,45.43Z"/>
      <path class="cls-4" d="M321.37,169.77c-17.1,23.1-42.92,38.32-64.27,57.39.15-27.96-3.58-59.94,4.76-86.08,14.88-10.88,19.14-20.13,41.03-11.32,19.61,7.89,17.8,22.45,18.48,40.02Z"/>
    </g>
  </g>
</svg>